<svg width="15" height="10" viewBox="0 0 15 10" fill="none" xmlns="http://www.w3.org/2000/svg">
<path d="M14.8187 0.232503C14.708 0.180941 14.5777 0.198929 14.4855 0.277679C12.2024 2.21309 9.28863 4.69389 8.37188 5.51997C7.85733 5.98445 7.14322 5.98445 6.62748 5.51936C5.65031 4.63893 2.3782 1.85725 0.514512 0.27765C0.421729 0.1989 0.291123 0.181527 0.18126 0.232474C0.0708105 0.283773 0 0.394251 0 0.516009V8.3749C0 9.06431 0.560596 9.62491 1.25001 9.62491H13.75C14.4394 9.62491 15 9.06431 15 8.3749V0.516009C15 0.394251 14.9292 0.28348 14.8187 0.232503Z" fill="#EA92B2"/>
</svg>
