<svg width="15" height="16" viewBox="0 0 15 16" fill="none" xmlns="http://www.w3.org/2000/svg">
<path d="M14.5917 11.5085L12.4984 9.41519C11.7508 8.66759 10.4799 8.96666 10.1808 9.93852C9.95654 10.6114 9.20893 10.9852 8.53609 10.8356C7.04088 10.4618 5.02234 8.51807 4.64854 6.9481C4.42426 6.27522 4.87282 5.52762 5.54567 5.30336C6.51755 5.00432 6.8166 3.73339 6.06899 2.98579L3.9757 0.892493C3.37761 0.369169 2.48049 0.369169 1.95716 0.892493L0.536713 2.31294C-0.883737 3.80815 0.686234 7.77046 4.19998 11.2842C7.71372 14.798 11.676 16.4427 13.1712 14.9475L14.5917 13.527C15.115 12.9289 15.115 12.0318 14.5917 11.5085Z" fill="#EA92B2"/>
</svg>
